# xmcd
#
# Track frame offsets:
#	118213
#	136203
#	150153
#
# Disc length: 2206 seconds
#
# Revision: 0
# Processed by: cddbd v1.4PL0 Copyright (c) Steve Scherf et al.
# Submitted via: EasyCDDAExtractor 4.5.2.1
#
DISCID=27027603
DTITLE=Kate Wallace - Kate Wallace Free CD+
DYEAR=1900
DGENRE=Country
TTITLE0=Hard Woman To Love
TTITLE1=Saving It All For You
TTITLE2=Dancin' On The Edge Of A Heartache
EXTD=
EXTT0=
EXTT1=
EXTT2=
PLAYORDER=
